<?xml version="1.0" encoding="UTF-8" standalone="no"?>
<svg width="400pt" height="400pt" viewBox="0 0 400 400" version="1.1" xmlns="http://www.w3.org/2000/svg">
<path fill="#ffffff" d=" M 0.00 0.00 L 33.31 0.00 C 33.23 71.19 33.54 142.39 33.00 213.58 C 74.20 142.41 115.18 71.11 156.47 0.00 L 293.12 0.00 C 268.59 42.18 244.27 84.50 219.84 126.75 C 268.46 126.76 317.07 126.75 365.69 126.75 C 365.69 84.50 365.69 42.25 365.69 0.00 L 400.00 0.00 L 400.00 400.00 L 198.39 400.00 C 208.62 396.35 219.07 393.35 229.18 389.36 C 266.08 375.16 301.47 356.25 332.14 331.16 C 339.50 324.91 347.13 318.65 352.34 310.39 C 359.74 298.94 362.65 285.28 364.20 271.91 C 366.02 255.35 366.02 238.67 366.00 222.03 C 365.88 200.45 365.72 178.87 365.67 157.28 C 310.58 237.40 255.55 317.56 200.55 397.73 C 199.91 398.62 199.07 399.34 198.20 400.00 L 0.00 400.00 L 0.00 0.00 Z" />
<path fill="#00acff" d=" M 33.31 0.00 L 156.47 0.00 C 115.18 71.11 74.20 142.41 33.00 213.58 C 33.54 142.39 33.23 71.19 33.31 0.00 Z" />
<path fill="#00acff" d=" M 293.12 0.00 L 365.69 0.00 C 365.69 42.25 365.69 84.50 365.69 126.75 C 317.07 126.75 268.46 126.76 219.84 126.75 C 244.27 84.50 268.59 42.18 293.12 0.00 Z" />
<path fill="#00acff" d=" M 200.55 397.73 C 255.55 317.56 310.58 237.40 365.67 157.28 C 365.72 178.87 365.88 200.45 366.00 222.03 C 366.02 238.67 366.02 255.35 364.20 271.91 C 362.65 285.28 359.74 298.94 352.34 310.39 C 347.13 318.65 339.50 324.91 332.14 331.16 C 301.47 356.25 266.08 375.16 229.18 389.36 C 219.07 393.35 208.62 396.35 198.39 400.00 L 198.20 400.00 C 199.07 399.34 199.91 398.62 200.55 397.73 Z" />
<path fill="#00acff" d=" M 33.11 245.06 C 83.64 245.06 134.16 245.07 184.69 245.05 C 173.55 290.63 162.39 336.21 151.25 381.79 C 132.27 373.48 113.87 363.80 96.42 352.63 C 81.03 342.66 66.10 331.76 53.12 318.75 C 40.75 305.81 36.31 287.63 34.58 270.31 C 33.70 261.92 33.34 253.49 33.11 245.06 Z" />
</svg>